<svg viewBox="0 0 63.3 40.6">
  <defs>
    <style>
      .cls-1 {
        fill: #fff;
      }
    </style>
  </defs>
  <title>creative-coding-club-logo</title>
    <g>
      <g>
        <path class="cls-1" d="M1113.5,97c-4.4,1-1.5,5.8-8.3,6.3,2.1,1.3,6.1,1.4,8.2.9s4.6-2.4,4.1-4.8A3.3,3.3,0,0,0,1113.5,97Z" transform="translate(-1093.5 -63.9)"/>
        <g>
          <path class="cls-1" d="M1093.5,81.7V81.5a1,1,0,0,1,.4-0.7l14.8-9a0.8,0.8,0,0,1,1.2.7v3.7a0.9,0.9,0,0,1-.3.6l-8.1,4.8,8.1,4.6a0.9,0.9,0,0,1,.3.6v3.7a0.8,0.8,0,0,1-1.2.7l-14.8-8.7A1,1,0,0,1,1093.5,81.7Z" transform="translate(-1093.5 -63.9)"/>
          <path class="cls-1" d="M1140.4,86.7a0.9,0.9,0,0,1,.3-0.6l8.1-4.6-8.1-4.8a0.9,0.9,0,0,1-.3-0.6V72.5a0.8,0.8,0,0,1,1.2-.7l14.8,9a1,1,0,0,1,.4.7v0.2a1,1,0,0,1-.4.7L1141.6,91a0.8,0.8,0,0,1-1.2-.7V86.7Z" transform="translate(-1093.5 -63.9)"/>
        </g>
      </g>
      <path class="cls-1" d="M1134.8,64.1a0.6,0.6,0,0,1,.7-0.2l1.7,1.2a0.6,0.6,0,0,1,.2.7l-17.6,31.6a0.6,0.6,0,0,1-.7.2L1115,95a0.6,0.6,0,0,1-.2-0.7Z" transform="translate(-1093.5 -63.9)"/>
    </g>
</svg>
