<?xml version="1.0" encoding="utf-8"?>
<!-- Generator: Adobe Illustrator 19.2.1, SVG Export Plug-In . SVG Version: 6.00 Build 0)  -->
<svg version="1.1" id="Layer_1" xmlns="http://www.w3.org/2000/svg" xmlns:xlink="http://www.w3.org/1999/xlink" x="0px" y="0px"
	 viewBox="0 0 221.4 174.1" style="enable-background:new 0 0 221.4 174.1;" xml:space="preserve">
<style type="text/css">
	.st0{fill:#D12026;}
	.st1{fill:#FFFFFF;}
</style>
<g>
	<rect class="st0" width="112" height="112"/>
	<g>
		<path class="st1" d="M29.8,30.2l20.6,20.6L29.8,71.5l-4.4-4.4l16.3-16.3L25.3,34.7L29.8,30.2z"/>
		<path class="st1" d="M48.3,78v-6.6h34V78H48.3z"/>
	</g>
</g>
<path d="M15.5,173.5v-15.7c0-1.5-0.3-2.6-0.9-3.5c-0.6-0.8-1.7-1.3-3.3-1.3c-0.9,0-1.7,0.2-2.4,0.7c-0.7,0.4-1.2,1-1.6,1.7
	s-0.7,1.4-0.9,2.3c-0.2,0.8-0.3,1.6-0.3,2.4v13.4H0v-35.3h6.1v12.6c0.8-1.1,1.8-1.9,3-2.5c1.3-0.6,2.6-0.9,3.9-0.9
	c1.4,0,2.6,0.2,3.6,0.7c1.1,0.5,2,1.1,2.7,1.9c0.7,0.8,1.3,1.8,1.7,2.9c0.4,1.1,0.6,2.3,0.6,3.6v17L15.5,173.5L15.5,173.5z
	 M50,173.2c-0.5,0.2-1,0.4-1.3,0.5c-0.4,0.1-0.9,0.2-1.7,0.2c-1.3,0-2.4-0.4-3.1-1.1c-0.7-0.7-1.1-1.5-1.2-2.5
	c-0.6,1-1.6,1.9-2.9,2.7c-1.4,0.7-3,1.1-4.8,1.1c-1.5,0-2.9-0.2-4-0.7c-1.1-0.4-2.1-1-2.9-1.8c-0.8-0.7-1.3-1.6-1.7-2.5
	c-0.4-1-0.6-2-0.6-3c0-1.2,0.2-2.3,0.7-3.2c0.4-0.9,1.1-1.8,1.8-2.4c0.8-0.7,1.7-1.2,2.7-1.6c1-0.4,2.2-0.6,3.4-0.7l7.5-0.5v-1.6
	c0-1.2-0.3-2.2-0.9-2.9c-0.6-0.7-1.7-1.1-3.4-1.1c-1.4,0-2.6,0.3-3.3,0.9c-0.8,0.6-1.2,1.5-1.3,2.7h-6c0.1-1.4,0.4-2.7,1-3.7
	s1.3-1.9,2.3-2.6c0.9-0.7,2-1.2,3.3-1.5c1.2-0.3,2.6-0.5,4-0.5c2.2,0,4.1,0.4,5.8,1.1c1.7,0.8,2.9,2.1,3.7,4
	c0.3,0.8,0.5,1.7,0.6,2.5c0.1,0.9,0.1,1.7,0.1,2.6v9.4c0,0.6,0.1,1,0.3,1.2s0.6,0.4,1.1,0.4c0.3,0,0.4,0,0.5,0s0.2,0,0.2,0L50,173.2
	L50,173.2z M41.8,162.2l-6.5,0.5c-0.9,0.1-1.8,0.4-2.5,0.9c-0.8,0.6-1.1,1.4-1.1,2.4s0.4,1.8,1.1,2.3c0.7,0.6,1.6,0.9,2.5,0.9
	c1.9,0,3.5-0.5,4.7-1.5s1.8-2.4,1.8-4.3C41.8,163.4,41.8,162.2,41.8,162.2z M74.6,164.5c-0.1,1-0.3,2-0.6,3c-0.3,1-0.8,1.8-1.4,2.6
	c-0.9,1.1-2.1,2.1-3.5,2.8c-1.5,0.8-3.2,1.2-5.2,1.2c-2,0-3.7-0.4-5.2-1.2s-2.7-1.7-3.6-2.8c-0.9-1.2-1.6-2.6-2.1-4.2
	c-0.5-1.6-0.7-3.3-0.7-5.1s0.2-3.6,0.7-5.1c0.5-1.6,1.2-2.9,2.1-4.2c0.9-1.1,2.1-2,3.6-2.8s3.3-1.2,5.2-1.2c2,0,3.7,0.4,5.2,1.2
	s2.7,1.7,3.5,2.8c0.6,0.7,1,1.6,1.4,2.6c0.3,1,0.5,1.9,0.6,3h-6c0-0.5-0.1-0.9-0.2-1.3c-0.1-0.4-0.3-0.8-0.5-1.1
	c-0.4-0.6-0.9-1-1.5-1.4c-0.7-0.4-1.5-0.5-2.4-0.5s-1.6,0.1-2.2,0.4c-0.6,0.3-1.1,0.7-1.5,1.1c-0.7,0.8-1.2,1.8-1.4,2.9
	c-0.2,1.1-0.3,2.3-0.3,3.5s0.1,2.4,0.3,3.5s0.7,2.1,1.4,2.9c0.4,0.5,0.9,0.8,1.5,1.1s1.3,0.5,2.2,0.5s1.7-0.2,2.4-0.5
	s1.2-0.8,1.5-1.4c0.2-0.3,0.4-0.7,0.5-1.1c0.1-0.4,0.2-0.8,0.2-1.3L74.6,164.5L74.6,164.5z M96.3,173.5l-7.1-11.1l-4.1,4.4v6.7H79
	v-35.3h6.1v20.2l9.6-10.3h7.7l-9.1,9.8l10.1,15.6L96.3,173.5L96.3,173.5z M126.7,161c0,0.2,0,0.4,0,0.6v1.1h-17c0,1,0.2,1.9,0.5,2.8
	c0.3,0.9,0.8,1.6,1.4,2.2c0.5,0.4,1,0.8,1.6,1.1s1.3,0.5,2.2,0.5c0.9,0,1.6-0.1,2.2-0.3s1.1-0.5,1.5-1c0.6-0.6,1-1.3,1.2-2.1h5.9
	c-0.1,0.7-0.3,1.6-0.8,2.5c-0.4,0.9-0.9,1.6-1.4,2.2c-1.1,1.3-2.4,2.2-3.9,2.7c-1.5,0.6-3.1,0.8-4.7,0.8c-1.8,0-3.3-0.3-4.6-0.9
	c-1.3-0.6-2.4-1.3-3.4-2.3c-1.3-1.2-2.2-2.7-2.9-4.4c-0.7-1.7-1-3.6-1-5.7c0-2,0.3-3.9,0.9-5.7c0.6-1.7,1.5-3.2,2.8-4.5
	c0.9-1,2.1-1.8,3.4-2.3c1.4-0.6,2.9-0.9,4.7-0.9c1.9,0,3.6,0.4,5.3,1.1c1.6,0.8,3,2,4,3.5c0.9,1.4,1.5,2.8,1.8,4.3
	C126.6,157.9,126.7,159.4,126.7,161L126.7,161z M120.6,158.2c0-1.9-0.6-3.3-1.6-4.4c-0.4-0.5-1-0.8-1.6-1.1s-1.4-0.4-2.3-0.4
	s-1.8,0.2-2.5,0.5c-0.7,0.4-1.3,0.8-1.8,1.4c-0.5,0.6-0.8,1.1-1,1.8c-0.2,0.6-0.3,1.4-0.3,2.2H120.6L120.6,158.2z M146.1,153.8
	c-0.8-0.2-1.5-0.2-2.1-0.2c-2.1,0-3.8,0.7-4.9,2c-1.1,1.4-1.7,3.1-1.7,5.1v12.8h-6.2v-25.4h5.2l0.5,3.8c0.6-1.5,1.6-2.5,2.9-3.2
	c1.4-0.7,2.8-1,4.3-1c0.6,0,1.3,0.1,1.9,0.1L146.1,153.8L146.1,153.8z M163.4,160.2v13.3H157v-13.3l-12-21.4h6.8l8.6,15l8.6-15h6.5
	L163.4,160.2L163.4,160.2z M195.4,160.8c0,2.1-0.3,3.9-0.8,5.4s-1.3,2.8-2.2,4c-0.9,1.1-2.1,2-3.6,2.8s-3.3,1.2-5.3,1.2
	s-3.7-0.4-5.3-1.2c-1.5-0.8-2.8-1.7-3.6-2.8c-0.9-1.2-1.7-2.5-2.2-4s-0.8-3.3-0.8-5.4c0-2.2,0.3-4,0.8-5.4c0.5-1.5,1.3-2.8,2.2-4
	c0.9-1.1,2.1-2,3.6-2.8s3.3-1.2,5.3-1.2s3.7,0.4,5.3,1.2c1.5,0.8,2.8,1.7,3.6,2.8c0.9,1.2,1.7,2.5,2.2,4
	C195.2,156.8,195.4,158.6,195.4,160.8L195.4,160.8z M189.2,160.8c0-1.2-0.1-2.4-0.3-3.5s-0.7-2.1-1.5-2.9c-0.4-0.5-1-0.8-1.6-1.2
	c-0.7-0.3-1.4-0.5-2.2-0.5s-1.6,0.2-2.3,0.5s-1.2,0.7-1.6,1.1c-0.8,0.8-1.2,1.8-1.5,2.9c-0.2,1.1-0.3,2.3-0.3,3.5s0.1,2.4,0.3,3.5
	s0.7,2.1,1.5,2.9c0.4,0.5,1,0.8,1.6,1.2c0.7,0.3,1.4,0.5,2.3,0.5c0.8,0,1.6-0.2,2.2-0.5c0.6-0.3,1.2-0.7,1.6-1.1
	c0.7-0.8,1.2-1.8,1.5-2.9C189.1,163.2,189.2,162,189.2,160.8L189.2,160.8z M216.3,173.5l-0.4-3.3c-0.6,1.2-1.6,2.2-2.9,2.9
	c-1.3,0.7-2.8,1.1-4.4,1.1c-1.4,0-2.6-0.2-3.7-0.7c-1.1-0.4-2-1.1-2.8-1.9c-0.8-0.8-1.4-1.7-1.8-2.9c-0.4-1.1-0.6-2.3-0.6-3.7v-17
	h6.1v15.6c0,1.5,0.3,2.7,1,3.5c0.6,0.9,1.8,1.3,3.4,1.3c0.7,0,1.3-0.1,1.8-0.4c0.5-0.2,0.9-0.5,1.3-0.9c0.7-0.7,1.2-1.6,1.5-2.6
	c0.2-1,0.4-2.1,0.4-3.1V148h6.1v25.4L216.3,173.5L216.3,173.5z"/>
</svg>
