<?xml version="1.0" encoding="utf-8"?>
<!-- Generator: Adobe Illustrator 19.2.1, SVG Export Plug-In . SVG Version: 6.00 Build 0)  -->
<svg version="1.1" xmlns="http://www.w3.org/2000/svg" xmlns:xlink="http://www.w3.org/1999/xlink" x="0px" y="0px"
	 viewBox="0 0 319.1 332.5" style="enable-background:new 0 0 319.1 332.5;" xml:space="preserve">
<style type="text/css">
	.st0{fill:#FFFFFF;}
</style>
<g id="Layer_1">
</g>
<g id="Isolation_Mode">
	<g>
		<g>
			<g>
				<g>
					<g>
						<path class="st0" d="M304.9,122l-23.8,15.7L159.5,219L37.1,139.9l-22.5-14.5v192.2h290.4C304.9,317.6,304.9,122,304.9,122z
							 M267.1,131.8V14.9H52.4v119.9l107.1,68.9L267.1,131.8z M279.9,123.7l37.4-25.5v232.1H1.8V102l37.8,24.2V2.1h240.2V123.7z"/>
					</g>
				</g>
			</g>
		</g>
		<path class="st0" d="M120.8,134.2c-0.8,3-2.1,8.4-3.1,12c-0.4,1.7,0,3.5,1.2,4.7c1.2,1.3,3,1.8,4.7,1.4l30.9-6.5v24.4
			c0,2.8,2.3,5,5,5c2.8,0,5-2.3,5-5v-24.4l30.9,6.5c0.3,0.1,0.7,0.1,1,0.1c1.4,0,2.7-0.6,3.6-1.6c1.2-1.3,1.7-3,1.2-4.7
			c-0.9-3.6-2.3-9-3.1-12l33-26.2c1.3-1,2-2.7,1.9-4.3c-0.1-1.7-1.1-3.2-2.5-4l-5.7-3.3c1.3-4.2,3.8-12.2,5.6-17.7
			c0.5-1.7,0.1-3.5-1-4.9c-1.2-1.3-3-1.9-4.7-1.6c0,0-11.2,2.2-16.4,3.2l-4.5-8c-0.8-1.4-2.3-2.4-3.9-2.5c-1.6-0.2-3.2,0.5-4.3,1.7
			l-8.2,9.5c1.8-7.9,4.3-18.7,6.2-27c0.4-1.9-0.3-3.9-1.9-5.1c-1.6-1.2-3.7-1.3-5.5-0.4c-3.8,2.1-8,4.4-10.8,5.9L163.9,29
			c-0.9-1.6-2.6-2.6-4.4-2.6c0,0,0,0,0,0c-1.8,0-3.5,1-4.4,2.6l-11.6,20.6c-3-1.6-7.4-4.1-10.8-5.9c-1.7-1-3.9-0.8-5.5,0.4
			c-1.6,1.2-2.3,3.2-1.9,5.1l6.2,27l-8.2-9.5c-1.1-1.2-2.7-1.9-4.3-1.7c-1.6,0.2-3.1,1.1-3.9,2.5l-4.5,8c-5.2-1-16.4-3.2-16.4-3.2
			c-1.7-0.3-3.5,0.3-4.7,1.6c-1.2,1.3-1.6,3.2-1,4.9c1.7,5.4,4.2,13.5,5.6,17.7l-5.7,3.3c-1.4,0.8-2.4,2.3-2.5,4
			c-0.1,1.7,0.6,3.3,1.9,4.3L120.8,134.2z M100.7,83.8C111.9,86,112,86,112.4,86c2,0,3.9-0.9,5.2-2.5c0.2-0.2,0.4-0.5,0.5-0.8
			l2.3-4.1L131,90.9c0.1,0.1,0.2,0.3,0.4,0.4c1.4,1.3,3.2,2,5.2,2c4.1,0,7.4-3.3,7.4-7.4c0-0.3,0-1-0.2-1.8l-6-26.2
			c5.8,3.1,6.1,3.1,7.2,3.1c2.1,0,4.1-1.1,5.4-2.9c0.1-0.1,0.2-0.2,0.2-0.4l9-16l9.1,16.1c1.2,1.9,3.3,3.1,5.5,3.1
			c1.1,0,1.4,0,7.1-3.1c-6.2,27.3-6.2,27.4-6.2,28.1c0,4.1,3.3,7.4,7.4,7.4c1.8,0,3.6-0.7,5-1.9c0.2-0.2,0.4-0.3,0.5-0.5l10.5-12.2
			l2.3,4.1c0.2,0.3,0.4,0.6,0.6,0.9c1.4,1.5,3.2,2.4,5.2,2.4c0.5,0,0.5,0,11.7-2.2c-4.2,13.2-4.2,13.3-4.2,14.1
			c0,2.4,1.3,4.7,3.4,5.9l1.6,0.9l-29,23.1c-0.2,0.1-0.4,0.3-0.5,0.5c-1.2,1.3-1.9,3-1.9,4.7c0,0.7,0,0.8,1.8,7.9l-29-6.1
			c-0.7-0.1-1.4-0.1-2.1,0l-29.1,6.1c1.8-7.1,1.8-7.2,1.8-7.9c0-1.8-0.7-3.5-1.9-4.8c-0.1-0.1-0.3-0.3-0.5-0.4l-29-23.1l1.6-0.9
			c2.1-1.2,3.4-3.5,3.4-5.9C104.9,97.1,104.9,97,100.7,83.8z"/>
	</g>
</g>
</svg>
